<mxfile host="app.diagrams.net" modified="2023-05-04T21:25:42.034Z" agent="Mozilla/5.0 (Windows NT 10.0; Win64; x64) AppleWebKit/537.36 (KHTML, like Gecko) Chrome/112.0.0.0 Safari/537.36" etag="FSynnI_7OvuGmoox9zv8" version="21.2.7" type="github">
  <diagram name="Page-1" id="xu53hyu-DOKRlgLd9vMa">
    <mxGraphModel dx="1290" dy="483" grid="1" gridSize="10" guides="1" tooltips="1" connect="1" arrows="1" fold="1" page="1" pageScale="1" pageWidth="850" pageHeight="1100" math="0" shadow="0">
      <root>
        <mxCell id="0" />
        <mxCell id="1" parent="0" />
        <mxCell id="DWGi81Txj0oeRS-JONPe-240" value="" style="line;strokeWidth=4;html=1;perimeter=backbonePerimeter;points=[];outlineConnect=0;" parent="1" vertex="1">
          <mxGeometry x="20" y="530" width="820" height="10" as="geometry" />
        </mxCell>
        <mxCell id="DWGi81Txj0oeRS-JONPe-241" value="" style="line;strokeWidth=4;html=1;perimeter=backbonePerimeter;points=[];outlineConnect=0;" parent="1" vertex="1">
          <mxGeometry x="30" y="730" width="810" height="10" as="geometry" />
        </mxCell>
        <mxCell id="BEp6QYkuWa-ZO171vKVj-59" style="edgeStyle=orthogonalEdgeStyle;rounded=0;orthogonalLoop=1;jettySize=auto;html=1;entryX=0.5;entryY=0;entryDx=0;entryDy=0;" edge="1" parent="1" source="BEp6QYkuWa-ZO171vKVj-3" target="BEp6QYkuWa-ZO171vKVj-21">
          <mxGeometry relative="1" as="geometry">
            <Array as="points">
              <mxPoint x="480" y="246" />
            </Array>
          </mxGeometry>
        </mxCell>
        <mxCell id="BEp6QYkuWa-ZO171vKVj-3" value="client" style="shape=table;startSize=25;container=1;collapsible=0;childLayout=tableLayout;" vertex="1" parent="1">
          <mxGeometry x="40" y="120" width="790" height="70" as="geometry" />
        </mxCell>
        <mxCell id="BEp6QYkuWa-ZO171vKVj-4" value="" style="shape=tableRow;horizontal=0;startSize=0;swimlaneHead=0;swimlaneBody=0;strokeColor=inherit;top=0;left=0;bottom=0;right=0;collapsible=0;dropTarget=0;fillColor=none;points=[[0,0.5],[1,0.5]];portConstraint=eastwest;" vertex="1" parent="BEp6QYkuWa-ZO171vKVj-3">
          <mxGeometry y="25" width="790" height="45" as="geometry" />
        </mxCell>
        <mxCell id="BEp6QYkuWa-ZO171vKVj-5" value="id" style="shape=partialRectangle;html=1;whiteSpace=wrap;connectable=0;strokeColor=inherit;overflow=hidden;fillColor=none;top=0;left=0;bottom=0;right=0;pointerEvents=1;" vertex="1" parent="BEp6QYkuWa-ZO171vKVj-4">
          <mxGeometry width="98" height="45" as="geometry">
            <mxRectangle width="98" height="45" as="alternateBounds" />
          </mxGeometry>
        </mxCell>
        <mxCell id="BEp6QYkuWa-ZO171vKVj-6" value="client_name" style="shape=partialRectangle;html=1;whiteSpace=wrap;connectable=0;strokeColor=inherit;overflow=hidden;fillColor=none;top=0;left=0;bottom=0;right=0;pointerEvents=1;" vertex="1" parent="BEp6QYkuWa-ZO171vKVj-4">
          <mxGeometry x="98" width="100" height="45" as="geometry">
            <mxRectangle width="100" height="45" as="alternateBounds" />
          </mxGeometry>
        </mxCell>
        <mxCell id="BEp6QYkuWa-ZO171vKVj-7" value="career_page" style="shape=partialRectangle;html=1;whiteSpace=wrap;connectable=0;strokeColor=inherit;overflow=hidden;fillColor=none;top=0;left=0;bottom=0;right=0;pointerEvents=1;" vertex="1" parent="BEp6QYkuWa-ZO171vKVj-4">
          <mxGeometry x="198" width="98" height="45" as="geometry">
            <mxRectangle width="98" height="45" as="alternateBounds" />
          </mxGeometry>
        </mxCell>
        <mxCell id="BEp6QYkuWa-ZO171vKVj-8" value="home_page" style="shape=partialRectangle;html=1;whiteSpace=wrap;connectable=0;strokeColor=inherit;overflow=hidden;fillColor=none;top=0;left=0;bottom=0;right=0;pointerEvents=1;" vertex="1" parent="BEp6QYkuWa-ZO171vKVj-4">
          <mxGeometry x="296" width="100" height="45" as="geometry">
            <mxRectangle width="100" height="45" as="alternateBounds" />
          </mxGeometry>
        </mxCell>
        <mxCell id="BEp6QYkuWa-ZO171vKVj-9" value="city_id" style="shape=partialRectangle;html=1;whiteSpace=wrap;connectable=0;strokeColor=inherit;overflow=hidden;fillColor=none;top=0;left=0;bottom=0;right=0;pointerEvents=1;" vertex="1" parent="BEp6QYkuWa-ZO171vKVj-4">
          <mxGeometry x="396" width="98" height="45" as="geometry">
            <mxRectangle width="98" height="45" as="alternateBounds" />
          </mxGeometry>
        </mxCell>
        <mxCell id="BEp6QYkuWa-ZO171vKVj-10" value="created_at" style="shape=partialRectangle;html=1;whiteSpace=wrap;connectable=0;strokeColor=inherit;overflow=hidden;fillColor=none;top=0;left=0;bottom=0;right=0;pointerEvents=1;" vertex="1" parent="BEp6QYkuWa-ZO171vKVj-4">
          <mxGeometry x="494" width="98" height="45" as="geometry">
            <mxRectangle width="98" height="45" as="alternateBounds" />
          </mxGeometry>
        </mxCell>
        <mxCell id="BEp6QYkuWa-ZO171vKVj-11" value="updated_at" style="shape=partialRectangle;html=1;whiteSpace=wrap;connectable=0;strokeColor=inherit;overflow=hidden;fillColor=none;top=0;left=0;bottom=0;right=0;pointerEvents=1;" vertex="1" parent="BEp6QYkuWa-ZO171vKVj-4">
          <mxGeometry x="592" width="100" height="45" as="geometry">
            <mxRectangle width="100" height="45" as="alternateBounds" />
          </mxGeometry>
        </mxCell>
        <mxCell id="BEp6QYkuWa-ZO171vKVj-12" value="active" style="shape=partialRectangle;html=1;whiteSpace=wrap;connectable=0;strokeColor=inherit;overflow=hidden;fillColor=none;top=0;left=0;bottom=0;right=0;pointerEvents=1;" vertex="1" parent="BEp6QYkuWa-ZO171vKVj-4">
          <mxGeometry x="692" width="98" height="45" as="geometry">
            <mxRectangle width="98" height="45" as="alternateBounds" />
          </mxGeometry>
        </mxCell>
        <mxCell id="BEp6QYkuWa-ZO171vKVj-60" style="edgeStyle=orthogonalEdgeStyle;rounded=0;orthogonalLoop=1;jettySize=auto;html=1;entryX=0.487;entryY=-0.037;entryDx=0;entryDy=0;entryPerimeter=0;" edge="1" parent="1" source="BEp6QYkuWa-ZO171vKVj-21" target="BEp6QYkuWa-ZO171vKVj-30">
          <mxGeometry relative="1" as="geometry">
            <Array as="points">
              <mxPoint x="418" y="350" />
              <mxPoint x="418" y="350" />
            </Array>
          </mxGeometry>
        </mxCell>
        <mxCell id="BEp6QYkuWa-ZO171vKVj-21" value="city" style="shape=table;startSize=30;container=1;collapsible=0;childLayout=tableLayout;" vertex="1" parent="1">
          <mxGeometry x="170" y="260" width="620" height="70" as="geometry" />
        </mxCell>
        <mxCell id="BEp6QYkuWa-ZO171vKVj-22" value="" style="shape=tableRow;horizontal=0;startSize=0;swimlaneHead=0;swimlaneBody=0;strokeColor=inherit;top=0;left=0;bottom=0;right=0;collapsible=0;dropTarget=0;fillColor=none;points=[[0,0.5],[1,0.5]];portConstraint=eastwest;" vertex="1" parent="BEp6QYkuWa-ZO171vKVj-21">
          <mxGeometry y="30" width="620" height="40" as="geometry" />
        </mxCell>
        <mxCell id="BEp6QYkuWa-ZO171vKVj-23" value="id" style="shape=partialRectangle;html=1;whiteSpace=wrap;connectable=0;strokeColor=inherit;overflow=hidden;fillColor=none;top=0;left=0;bottom=0;right=0;pointerEvents=1;" vertex="1" parent="BEp6QYkuWa-ZO171vKVj-22">
          <mxGeometry width="103" height="40" as="geometry">
            <mxRectangle width="103" height="40" as="alternateBounds" />
          </mxGeometry>
        </mxCell>
        <mxCell id="BEp6QYkuWa-ZO171vKVj-24" value="name" style="shape=partialRectangle;html=1;whiteSpace=wrap;connectable=0;strokeColor=inherit;overflow=hidden;fillColor=none;top=0;left=0;bottom=0;right=0;pointerEvents=1;" vertex="1" parent="BEp6QYkuWa-ZO171vKVj-22">
          <mxGeometry x="103" width="104" height="40" as="geometry">
            <mxRectangle width="104" height="40" as="alternateBounds" />
          </mxGeometry>
        </mxCell>
        <mxCell id="BEp6QYkuWa-ZO171vKVj-25" value="state_id" style="shape=partialRectangle;html=1;whiteSpace=wrap;connectable=0;strokeColor=inherit;overflow=hidden;fillColor=none;top=0;left=0;bottom=0;right=0;pointerEvents=1;" vertex="1" parent="BEp6QYkuWa-ZO171vKVj-22">
          <mxGeometry x="207" width="103" height="40" as="geometry">
            <mxRectangle width="103" height="40" as="alternateBounds" />
          </mxGeometry>
        </mxCell>
        <mxCell id="BEp6QYkuWa-ZO171vKVj-26" value="created_at" style="shape=partialRectangle;html=1;whiteSpace=wrap;connectable=0;strokeColor=inherit;overflow=hidden;fillColor=none;top=0;left=0;bottom=0;right=0;pointerEvents=1;" vertex="1" parent="BEp6QYkuWa-ZO171vKVj-22">
          <mxGeometry x="310" width="103" height="40" as="geometry">
            <mxRectangle width="103" height="40" as="alternateBounds" />
          </mxGeometry>
        </mxCell>
        <mxCell id="BEp6QYkuWa-ZO171vKVj-27" value="updated_at" style="shape=partialRectangle;html=1;whiteSpace=wrap;connectable=0;strokeColor=inherit;overflow=hidden;fillColor=none;top=0;left=0;bottom=0;right=0;pointerEvents=1;" vertex="1" parent="BEp6QYkuWa-ZO171vKVj-22">
          <mxGeometry x="413" width="104" height="40" as="geometry">
            <mxRectangle width="104" height="40" as="alternateBounds" />
          </mxGeometry>
        </mxCell>
        <mxCell id="BEp6QYkuWa-ZO171vKVj-28" value="active" style="shape=partialRectangle;html=1;whiteSpace=wrap;connectable=0;strokeColor=inherit;overflow=hidden;fillColor=none;top=0;left=0;bottom=0;right=0;pointerEvents=1;" vertex="1" parent="BEp6QYkuWa-ZO171vKVj-22">
          <mxGeometry x="517" width="103" height="40" as="geometry">
            <mxRectangle width="103" height="40" as="alternateBounds" />
          </mxGeometry>
        </mxCell>
        <mxCell id="BEp6QYkuWa-ZO171vKVj-30" value="state" style="shape=table;startSize=30;container=1;collapsible=0;childLayout=tableLayout;" vertex="1" parent="1">
          <mxGeometry x="145" y="410" width="560" height="70" as="geometry" />
        </mxCell>
        <mxCell id="BEp6QYkuWa-ZO171vKVj-31" value="" style="shape=tableRow;horizontal=0;startSize=0;swimlaneHead=0;swimlaneBody=0;strokeColor=inherit;top=0;left=0;bottom=0;right=0;collapsible=0;dropTarget=0;fillColor=none;points=[[0,0.5],[1,0.5]];portConstraint=eastwest;" vertex="1" parent="BEp6QYkuWa-ZO171vKVj-30">
          <mxGeometry y="30" width="560" height="40" as="geometry" />
        </mxCell>
        <mxCell id="BEp6QYkuWa-ZO171vKVj-32" value="id" style="shape=partialRectangle;html=1;whiteSpace=wrap;connectable=0;strokeColor=inherit;overflow=hidden;fillColor=none;top=0;left=0;bottom=0;right=0;pointerEvents=1;" vertex="1" parent="BEp6QYkuWa-ZO171vKVj-31">
          <mxGeometry width="112" height="40" as="geometry">
            <mxRectangle width="112" height="40" as="alternateBounds" />
          </mxGeometry>
        </mxCell>
        <mxCell id="BEp6QYkuWa-ZO171vKVj-33" value="name" style="shape=partialRectangle;html=1;whiteSpace=wrap;connectable=0;strokeColor=inherit;overflow=hidden;fillColor=none;top=0;left=0;bottom=0;right=0;pointerEvents=1;" vertex="1" parent="BEp6QYkuWa-ZO171vKVj-31">
          <mxGeometry x="112" width="112" height="40" as="geometry">
            <mxRectangle width="112" height="40" as="alternateBounds" />
          </mxGeometry>
        </mxCell>
        <mxCell id="BEp6QYkuWa-ZO171vKVj-34" value="created_at" style="shape=partialRectangle;html=1;whiteSpace=wrap;connectable=0;strokeColor=inherit;overflow=hidden;fillColor=none;top=0;left=0;bottom=0;right=0;pointerEvents=1;" vertex="1" parent="BEp6QYkuWa-ZO171vKVj-31">
          <mxGeometry x="224" width="112" height="40" as="geometry">
            <mxRectangle width="112" height="40" as="alternateBounds" />
          </mxGeometry>
        </mxCell>
        <mxCell id="BEp6QYkuWa-ZO171vKVj-35" value="updated_at" style="shape=partialRectangle;html=1;whiteSpace=wrap;connectable=0;strokeColor=inherit;overflow=hidden;fillColor=none;top=0;left=0;bottom=0;right=0;pointerEvents=1;" vertex="1" parent="BEp6QYkuWa-ZO171vKVj-31">
          <mxGeometry x="336" width="112" height="40" as="geometry">
            <mxRectangle width="112" height="40" as="alternateBounds" />
          </mxGeometry>
        </mxCell>
        <mxCell id="BEp6QYkuWa-ZO171vKVj-36" value="active" style="shape=partialRectangle;html=1;whiteSpace=wrap;connectable=0;strokeColor=inherit;overflow=hidden;fillColor=none;top=0;left=0;bottom=0;right=0;pointerEvents=1;" vertex="1" parent="BEp6QYkuWa-ZO171vKVj-31">
          <mxGeometry x="448" width="112" height="40" as="geometry">
            <mxRectangle width="112" height="40" as="alternateBounds" />
          </mxGeometry>
        </mxCell>
        <mxCell id="BEp6QYkuWa-ZO171vKVj-39" value="vendor" style="shape=table;startSize=30;container=1;collapsible=0;childLayout=tableLayout;" vertex="1" parent="1">
          <mxGeometry x="90" y="600" width="630" height="70" as="geometry" />
        </mxCell>
        <mxCell id="BEp6QYkuWa-ZO171vKVj-40" value="" style="shape=tableRow;horizontal=0;startSize=0;swimlaneHead=0;swimlaneBody=0;strokeColor=inherit;top=0;left=0;bottom=0;right=0;collapsible=0;dropTarget=0;fillColor=none;points=[[0,0.5],[1,0.5]];portConstraint=eastwest;" vertex="1" parent="BEp6QYkuWa-ZO171vKVj-39">
          <mxGeometry y="30" width="630" height="40" as="geometry" />
        </mxCell>
        <mxCell id="BEp6QYkuWa-ZO171vKVj-41" value="id" style="shape=partialRectangle;html=1;whiteSpace=wrap;connectable=0;strokeColor=inherit;overflow=hidden;fillColor=none;top=0;left=0;bottom=0;right=0;pointerEvents=1;" vertex="1" parent="BEp6QYkuWa-ZO171vKVj-40">
          <mxGeometry width="79" height="40" as="geometry">
            <mxRectangle width="79" height="40" as="alternateBounds" />
          </mxGeometry>
        </mxCell>
        <mxCell id="BEp6QYkuWa-ZO171vKVj-42" value="name" style="shape=partialRectangle;html=1;whiteSpace=wrap;connectable=0;strokeColor=inherit;overflow=hidden;fillColor=none;top=0;left=0;bottom=0;right=0;pointerEvents=1;" vertex="1" parent="BEp6QYkuWa-ZO171vKVj-40">
          <mxGeometry x="79" width="79" height="40" as="geometry">
            <mxRectangle width="79" height="40" as="alternateBounds" />
          </mxGeometry>
        </mxCell>
        <mxCell id="BEp6QYkuWa-ZO171vKVj-43" value="career_page" style="shape=partialRectangle;html=1;whiteSpace=wrap;connectable=0;strokeColor=inherit;overflow=hidden;fillColor=none;top=0;left=0;bottom=0;right=0;pointerEvents=1;" vertex="1" parent="BEp6QYkuWa-ZO171vKVj-40">
          <mxGeometry x="158" width="78" height="40" as="geometry">
            <mxRectangle width="78" height="40" as="alternateBounds" />
          </mxGeometry>
        </mxCell>
        <mxCell id="BEp6QYkuWa-ZO171vKVj-44" value="home_page" style="shape=partialRectangle;html=1;whiteSpace=wrap;connectable=0;strokeColor=inherit;overflow=hidden;fillColor=none;top=0;left=0;bottom=0;right=0;pointerEvents=1;" vertex="1" parent="BEp6QYkuWa-ZO171vKVj-40">
          <mxGeometry x="236" width="79" height="40" as="geometry">
            <mxRectangle width="79" height="40" as="alternateBounds" />
          </mxGeometry>
        </mxCell>
        <mxCell id="BEp6QYkuWa-ZO171vKVj-45" value="is_approved" style="shape=partialRectangle;html=1;whiteSpace=wrap;connectable=0;strokeColor=inherit;overflow=hidden;fillColor=none;top=0;left=0;bottom=0;right=0;pointerEvents=1;" vertex="1" parent="BEp6QYkuWa-ZO171vKVj-40">
          <mxGeometry x="315" width="79" height="40" as="geometry">
            <mxRectangle width="79" height="40" as="alternateBounds" />
          </mxGeometry>
        </mxCell>
        <mxCell id="BEp6QYkuWa-ZO171vKVj-46" value="created_at" style="shape=partialRectangle;html=1;whiteSpace=wrap;connectable=0;strokeColor=inherit;overflow=hidden;fillColor=none;top=0;left=0;bottom=0;right=0;pointerEvents=1;" vertex="1" parent="BEp6QYkuWa-ZO171vKVj-40">
          <mxGeometry x="394" width="79" height="40" as="geometry">
            <mxRectangle width="79" height="40" as="alternateBounds" />
          </mxGeometry>
        </mxCell>
        <mxCell id="BEp6QYkuWa-ZO171vKVj-47" value="updated_at" style="shape=partialRectangle;html=1;whiteSpace=wrap;connectable=0;strokeColor=inherit;overflow=hidden;fillColor=none;top=0;left=0;bottom=0;right=0;pointerEvents=1;" vertex="1" parent="BEp6QYkuWa-ZO171vKVj-40">
          <mxGeometry x="473" width="78" height="40" as="geometry">
            <mxRectangle width="78" height="40" as="alternateBounds" />
          </mxGeometry>
        </mxCell>
        <mxCell id="BEp6QYkuWa-ZO171vKVj-48" value="active" style="shape=partialRectangle;html=1;whiteSpace=wrap;connectable=0;strokeColor=inherit;overflow=hidden;fillColor=none;top=0;left=0;bottom=0;right=0;pointerEvents=1;" vertex="1" parent="BEp6QYkuWa-ZO171vKVj-40">
          <mxGeometry x="551" width="79" height="40" as="geometry">
            <mxRectangle width="79" height="40" as="alternateBounds" />
          </mxGeometry>
        </mxCell>
        <mxCell id="BEp6QYkuWa-ZO171vKVj-51" value="job_portal" style="shape=table;startSize=30;container=1;collapsible=0;childLayout=tableLayout;" vertex="1" parent="1">
          <mxGeometry x="100" y="800" width="630" height="70" as="geometry" />
        </mxCell>
        <mxCell id="BEp6QYkuWa-ZO171vKVj-52" value="" style="shape=tableRow;horizontal=0;startSize=0;swimlaneHead=0;swimlaneBody=0;strokeColor=inherit;top=0;left=0;bottom=0;right=0;collapsible=0;dropTarget=0;fillColor=none;points=[[0,0.5],[1,0.5]];portConstraint=eastwest;" vertex="1" parent="BEp6QYkuWa-ZO171vKVj-51">
          <mxGeometry y="30" width="630" height="40" as="geometry" />
        </mxCell>
        <mxCell id="BEp6QYkuWa-ZO171vKVj-53" value="id" style="shape=partialRectangle;html=1;whiteSpace=wrap;connectable=0;strokeColor=inherit;overflow=hidden;fillColor=none;top=0;left=0;bottom=0;right=0;pointerEvents=1;" vertex="1" parent="BEp6QYkuWa-ZO171vKVj-52">
          <mxGeometry width="105" height="40" as="geometry">
            <mxRectangle width="105" height="40" as="alternateBounds" />
          </mxGeometry>
        </mxCell>
        <mxCell id="BEp6QYkuWa-ZO171vKVj-54" value="name" style="shape=partialRectangle;html=1;whiteSpace=wrap;connectable=0;strokeColor=inherit;overflow=hidden;fillColor=none;top=0;left=0;bottom=0;right=0;pointerEvents=1;" vertex="1" parent="BEp6QYkuWa-ZO171vKVj-52">
          <mxGeometry x="105" width="105" height="40" as="geometry">
            <mxRectangle width="105" height="40" as="alternateBounds" />
          </mxGeometry>
        </mxCell>
        <mxCell id="BEp6QYkuWa-ZO171vKVj-55" value="home_page" style="shape=partialRectangle;html=1;whiteSpace=wrap;connectable=0;strokeColor=inherit;overflow=hidden;fillColor=none;top=0;left=0;bottom=0;right=0;pointerEvents=1;" vertex="1" parent="BEp6QYkuWa-ZO171vKVj-52">
          <mxGeometry x="210" width="105" height="40" as="geometry">
            <mxRectangle width="105" height="40" as="alternateBounds" />
          </mxGeometry>
        </mxCell>
        <mxCell id="BEp6QYkuWa-ZO171vKVj-56" value="created_at" style="shape=partialRectangle;html=1;whiteSpace=wrap;connectable=0;strokeColor=inherit;overflow=hidden;fillColor=none;top=0;left=0;bottom=0;right=0;pointerEvents=1;" vertex="1" parent="BEp6QYkuWa-ZO171vKVj-52">
          <mxGeometry x="315" width="105" height="40" as="geometry">
            <mxRectangle width="105" height="40" as="alternateBounds" />
          </mxGeometry>
        </mxCell>
        <mxCell id="BEp6QYkuWa-ZO171vKVj-57" value="updated_at" style="shape=partialRectangle;html=1;whiteSpace=wrap;connectable=0;strokeColor=inherit;overflow=hidden;fillColor=none;top=0;left=0;bottom=0;right=0;pointerEvents=1;" vertex="1" parent="BEp6QYkuWa-ZO171vKVj-52">
          <mxGeometry x="420" width="105" height="40" as="geometry">
            <mxRectangle width="105" height="40" as="alternateBounds" />
          </mxGeometry>
        </mxCell>
        <mxCell id="BEp6QYkuWa-ZO171vKVj-58" value="active" style="shape=partialRectangle;html=1;whiteSpace=wrap;connectable=0;strokeColor=inherit;overflow=hidden;fillColor=none;top=0;left=0;bottom=0;right=0;pointerEvents=1;" vertex="1" parent="BEp6QYkuWa-ZO171vKVj-52">
          <mxGeometry x="525" width="105" height="40" as="geometry">
            <mxRectangle width="105" height="40" as="alternateBounds" />
          </mxGeometry>
        </mxCell>
      </root>
    </mxGraphModel>
  </diagram>
</mxfile>
